<svg id="Group_226" data-name="Group 226" xmlns="http://www.w3.org/2000/svg" width="24" height="24" viewBox="0 0 24 24">
  <path id="Rectangle_9_-_Outline" data-name="Rectangle 9 - Outline" d="M1.4-1H7A2.4,2.4,0,0,1,9.4,1.4V7A2.4,2.4,0,0,1,7,9.4H1.4A2.4,2.4,0,0,1-1,7V1.4A2.4,2.4,0,0,1,1.4-1ZM7,7.8A.8.8,0,0,0,7.8,7V1.4A.8.8,0,0,0,7,.6H1.4a.8.8,0,0,0-.8.8V7a.8.8,0,0,0,.8.8Z" transform="translate(14.6 14.6)"/>
  <path id="Rectangle_10_-_Outline" data-name="Rectangle 10 - Outline" d="M1.4-1H7A2.4,2.4,0,0,1,9.4,1.4V7A2.4,2.4,0,0,1,7,9.4H1.4A2.4,2.4,0,0,1-1,7V1.4A2.4,2.4,0,0,1,1.4-1ZM7,7.8A.8.8,0,0,0,7.8,7V1.4A.8.8,0,0,0,7,.6H1.4a.8.8,0,0,0-.8.8V7a.8.8,0,0,0,.8.8Z" transform="translate(14.6 1)"/>
  <path id="Rectangle_11_-_Outline" data-name="Rectangle 11 - Outline" d="M1.4-1H7A2.4,2.4,0,0,1,9.4,1.4V7A2.4,2.4,0,0,1,7,9.4H1.4A2.4,2.4,0,0,1-1,7V1.4A2.4,2.4,0,0,1,1.4-1ZM7,7.8A.8.8,0,0,0,7.8,7V1.4A.8.8,0,0,0,7,.6H1.4a.8.8,0,0,0-.8.8V7a.8.8,0,0,0,.8.8Z" transform="translate(1 1)"/>
  <path id="Rectangle_12_-_Outline" data-name="Rectangle 12 - Outline" d="M1.4-1H7A2.4,2.4,0,0,1,9.4,1.4V7A2.4,2.4,0,0,1,7,9.4H1.4A2.4,2.4,0,0,1-1,7V1.4A2.4,2.4,0,0,1,1.4-1ZM7,7.8A.8.8,0,0,0,7.8,7V1.4A.8.8,0,0,0,7,.6H1.4a.8.8,0,0,0-.8.8V7a.8.8,0,0,0,.8.8Z" transform="translate(1 14.6)"/>
</svg>
