<svg id="_8678754_install_fill_icon" data-name="8678754_install_fill_icon" xmlns="http://www.w3.org/2000/svg" width="24" height="24" viewBox="0 0 24 24">
  <path id="Path_44" data-name="Path 44" d="M0,0H24V24H0Z" fill="none"/>
  <path id="_8665055_chart_pie_icon" data-name="8665055_chart_pie_icon" d="M55.306,12.687H44.829l6.939,6.979a.712.712,0,0,0,.982.032,10.618,10.618,0,0,0,3.23-6.224A.659.659,0,0,0,55.306,12.687Zm-.733-2.862A10.658,10.658,0,0,0,44.714-.034a.711.711,0,0,0-.74.717l.038,9.884h9.881A.659.659,0,0,0,54.573,9.825ZM41.891,12.687V2.208A.707.707,0,0,0,41.1,1.5,10.6,10.6,0,0,0,32,12.351a10.737,10.737,0,0,0,10.729,10.23A10.514,10.514,0,0,0,48.7,20.638a.7.7,0,0,0,.071-1.065Z" transform="translate(-31.997 0.727)"/>
</svg>
