<svg xmlns="http://www.w3.org/2000/svg" width="24" height="24" viewBox="0 0 24 24">
  <path id="Icon_ion-gear-a" data-name="Icon ion-gear-a" d="M26.194,16.5A4.1,4.1,0,0,1,28.5,13.013a12.716,12.716,0,0,0-.987-2.388,3.864,3.864,0,0,1-3.875-1.262,3.742,3.742,0,0,1-.975-3.875A12.545,12.545,0,0,0,20.275,4.5,4.516,4.516,0,0,1,16.5,6.806,4.524,4.524,0,0,1,12.725,4.5a12.545,12.545,0,0,0-2.387.988,3.746,3.746,0,0,1-.975,3.875,3.866,3.866,0,0,1-3.869,1.262A12.173,12.173,0,0,0,4.5,13.013,4.091,4.091,0,0,1,6.813,16.5,4.531,4.531,0,0,1,4.5,20.275a12.545,12.545,0,0,0,.988,2.387,3.732,3.732,0,0,1,3.869.975,3.73,3.73,0,0,1,.975,3.875,12.716,12.716,0,0,0,2.387.987,4.524,4.524,0,0,1,3.775-2.306A4.524,4.524,0,0,1,20.269,28.5a12.545,12.545,0,0,0,2.388-.987,3.746,3.746,0,0,1,.975-3.875,3.872,3.872,0,0,1,3.875-1.263,12.89,12.89,0,0,0,.988-2.388A4.09,4.09,0,0,1,26.194,16.5ZM16.5,22.644A6.144,6.144,0,1,1,22.644,16.5,6.147,6.147,0,0,1,16.5,22.644Z" transform="translate(-4.5 -4.5)"/>
</svg>
